<svg width="168" height="79" viewBox="0 0 168 79" fill="none" xmlns="http://www.w3.org/2000/svg">
<g filter="url(#filter0_dd_218_2290)">
<path d="M41.084 69V60.4C40.8507 61.3 40.0673 62.5333 38.734 64.1C37.434 65.6667 35.6173 67.0833 33.284 68.35C30.984 69.5833 28.2507 70.2 25.084 70.2C21.384 70.2 17.9673 69.35 14.834 67.65C11.734 65.9167 9.23398 63.4333 7.33398 60.2C5.46732 56.9333 4.53398 53.0333 4.53398 48.5C4.53398 43.9667 5.46732 40.0833 7.33398 36.85C9.23398 33.5833 11.734 31.0833 14.834 29.35C17.9673 27.6167 21.384 26.75 25.084 26.75C28.2507 26.75 30.984 27.35 33.284 28.55C35.584 29.7167 37.4007 31.0667 38.734 32.6C40.1007 34.1333 40.8673 35.4167 41.034 36.45V27.95H46.634V69H41.084ZM10.184 48.5C10.184 51.9667 10.934 54.95 12.434 57.45C13.934 59.95 15.8673 61.8667 18.234 63.2C20.634 64.5333 23.1507 65.2 25.784 65.2C28.684 65.2 31.2673 64.5167 33.534 63.15C35.8007 61.7833 37.584 59.85 38.884 57.35C40.2173 54.85 40.884 51.9 40.884 48.5C40.884 45.1 40.2173 42.15 38.884 39.65C37.584 37.15 35.8007 35.2167 33.534 33.85C31.2673 32.45 28.684 31.75 25.784 31.75C23.1507 31.75 20.634 32.4333 18.234 33.8C15.8673 35.1333 13.934 37.05 12.434 39.55C10.934 42.05 10.184 45.0333 10.184 48.5ZM66.4441 69H60.6441V0.199998H66.4441V69ZM82.316 69V27.95H87.966V69H82.316ZM85.216 11.3C84.016 11.3 82.9827 10.8833 82.116 10.05C81.2827 9.18333 80.866 8.15 80.866 6.95C80.866 5.71666 81.2993 4.68333 82.166 3.85C83.0327 2.98333 84.0493 2.54999 85.216 2.54999C86.016 2.54999 86.7493 2.75 87.416 3.15C88.116 3.55 88.666 4.08333 89.066 4.75C89.4993 5.38333 89.716 6.11666 89.716 6.95C89.716 8.15 89.266 9.18333 88.366 10.05C87.4993 10.8833 86.4493 11.3 85.216 11.3ZM103.5 69V0.199998H109.3V36.45C109.467 35.35 110.25 34.05 111.65 32.55C113.05 31.0167 114.967 29.6667 117.4 28.5C119.834 27.3333 122.65 26.75 125.85 26.75C129.584 26.75 132.934 27.6167 135.9 29.35C138.9 31.0833 141.284 33.5833 143.05 36.85C144.817 40.0833 145.7 43.9667 145.7 48.5C145.7 53.0333 144.817 56.9333 143.05 60.2C141.284 63.4333 138.9 65.9167 135.9 67.65C132.934 69.35 129.584 70.2 125.85 70.2C122.717 70.2 119.934 69.6 117.5 68.4C115.067 67.2 113.117 65.8333 111.65 64.3C110.184 62.7667 109.35 61.4667 109.15 60.4V69H103.5ZM139.95 48.5C139.95 45.0333 139.25 42.05 137.85 39.55C136.484 37.05 134.667 35.1333 132.4 33.8C130.167 32.4333 127.734 31.75 125.1 31.75C122.234 31.75 119.6 32.45 117.2 33.85C114.8 35.2167 112.884 37.15 111.45 39.65C110.017 42.15 109.3 45.1 109.3 48.5C109.3 51.9 110.017 54.85 111.45 57.35C112.884 59.85 114.8 61.7833 117.2 63.15C119.6 64.5167 122.234 65.2 125.1 65.2C127.734 65.2 130.167 64.5333 132.4 63.2C134.667 61.8667 136.484 59.95 137.85 57.45C139.25 54.95 139.95 51.9667 139.95 48.5ZM156.582 69V27.95H162.232V69H156.582ZM159.482 11.3C158.282 11.3 157.248 10.8833 156.382 10.05C155.548 9.18333 155.132 8.15 155.132 6.95C155.132 5.71666 155.565 4.68333 156.432 3.85C157.298 2.98333 158.315 2.54999 159.482 2.54999C160.282 2.54999 161.015 2.75 161.682 3.15C162.382 3.55 162.932 4.08333 163.332 4.75C163.765 5.38333 163.982 6.11666 163.982 6.95C163.982 8.15 163.532 9.18333 162.632 10.05C161.765 10.8833 160.715 11.3 159.482 11.3Z" fill="url(#paint0_linear_218_2290)" shape-rendering="crispEdges"/>
</g>
<defs>
<filter id="filter0_dd_218_2290" x="0.53418" y="0.200195" width="167.447" height="78" filterUnits="userSpaceOnUse" color-interpolation-filters="sRGB">
<feFlood flood-opacity="0" result="BackgroundImageFix"/>
<feColorMatrix in="SourceAlpha" type="matrix" values="0 0 0 0 0 0 0 0 0 0 0 0 0 0 0 0 0 0 127 0" result="hardAlpha"/>
<feOffset dy="2"/>
<feGaussianBlur stdDeviation="1"/>
<feComposite in2="hardAlpha" operator="out"/>
<feColorMatrix type="matrix" values="0 0 0 0 0 0 0 0 0 0 0 0 0 0 0 0 0 0 0.25 0"/>
<feBlend mode="normal" in2="BackgroundImageFix" result="effect1_dropShadow_218_2290"/>
<feColorMatrix in="SourceAlpha" type="matrix" values="0 0 0 0 0 0 0 0 0 0 0 0 0 0 0 0 0 0 127 0" result="hardAlpha"/>
<feOffset dy="4"/>
<feGaussianBlur stdDeviation="2"/>
<feComposite in2="hardAlpha" operator="out"/>
<feColorMatrix type="matrix" values="0 0 0 0 0 0 0 0 0 0 0 0 0 0 0 0 0 0 0.25 0"/>
<feBlend mode="normal" in2="effect1_dropShadow_218_2290" result="effect2_dropShadow_218_2290"/>
<feBlend mode="normal" in="SourceGraphic" in2="effect2_dropShadow_218_2290" result="shape"/>
</filter>
<linearGradient id="paint0_linear_218_2290" x1="-96.4997" y1="15.5" x2="275.5" y2="81.0002" gradientUnits="userSpaceOnUse">
<stop/>
<stop offset="1" stop-opacity="0.86"/>
</linearGradient>
</defs>
</svg>
